Coordinates
version=1
nRows=14
nColumns=42
inDegrees=yes

Units are S.I. units (second, meters, Newtons, ...)
If the header above contains a line with 'inDegrees', this indicates whether rotational values are in degrees (yes) or radians (no).

endheader
time	pelvis_tilt	pelvis_list	pelvis_rotation	pelvis_tx	pelvis_ty	pelvis_tz	hip_flexion_r	hip_adduction_r	hip_rotation_r	knee_angle_r	knee_adduction_r	knee_angle_r_beta	ankle_angle_r	subtalar_angle_r	mtp_angle_r	hip_flexion_l	hip_adduction_l	hip_rotation_l	knee_angle_l	knee_adduction_l	knee_angle_l_beta	ankle_angle_l	subtalar_angle_l	mtp_angle_l	lumbar_extension	lumbar_bending	lumbar_rotation	arm_flex_r	arm_add_r	arm_rot_r	elbow_flex_r	pro_sup_r	wrist_flex_r	wrist_dev_r	arm_flex_l	arm_add_l	arm_rot_l	elbow_flex_l	pro_sup_l	wrist_flex_l	wrist_dev_l
      1.01000000	     22.30602460	      7.00713929	      2.57983344	     -1.56120945	      0.91052468	      0.08648868	      7.61023421	    -14.75123999	    -39.45588001	     49.16854369	    -17.26093836	      0.85815298	     27.58243870	     30.50141814	     -7.64694663	    -26.53958718	     13.34893373	     -5.62216662	     13.89993522	     -9.45894746	      0.24259964	     31.15218049	     29.39072699	     -7.64694663	    -49.11949042	     -1.67096427	     -8.88657755	     -0.74632496	    -12.20186975	      0.16882178	     40.41655302	     90.00000001	      0.00000000	      0.00000000	     20.28062158	    -16.63979702	     -5.65876581	     51.64157584	     90.00000001	      0.00000000	      0.00000000
      1.02000000	     22.02146608	      7.08654369	      2.77392443	     -1.54917880	      0.90888973	      0.08644749	      8.97814037	    -14.76285099	    -39.48201982	     46.50922596	    -16.32525254	      0.81173913	     27.33834424	     31.20680400	     -7.64437664	    -27.38211239	     13.28327702	     -5.56304666	     13.38337452	     -9.47437802	      0.23358395	     31.55081268	     29.68049477	     -7.64437664	    -48.91176862	     -1.52006206	     -9.16452070	     -0.74220773	    -12.12662908	      0.09505344	     40.39513210	     90.00000001	      0.00000000	      0.00000000	     21.22613417	    -16.81665150	     -5.57466801	     52.28789701	     90.00000001	      0.00000000	      0.00000000
      1.03000000	     21.73083619	      7.30487853	      2.89399460	     -1.53708741	      0.90706888	      0.08645870	     10.26651691	    -15.03919530	    -39.53264050	     43.96935635	    -15.25818401	      0.76741004	     26.60440725	     33.22818931	     -7.63997041	    -28.12641862	     13.33256317	     -5.87471524	     13.02379812	     -9.43200425	      0.22730816	     31.85128390	     30.41397964	     -7.63997041	    -48.71064531	     -1.53284295	     -9.50075545	     -0.72120838	    -11.94000180	     -0.12431282	     40.29897420	     90.00000001	      0.00000000	      0.00000000	     22.00489629	    -17.08953574	     -5.34518726	     53.30796778	     90.00000001	      0.00000000	      0.00000000
      1.04000000	     21.33280169	      7.47816512	      3.04685287	     -1.52491671	      0.90504731	      0.08653793	     11.54872365	    -15.18326950	    -39.55535906	     41.50454418	    -14.16746979	      0.72439095	     26.10688968	     33.91202548	     -7.63766555	    -28.68893047	     13.35686731	     -6.19713661	     12.79339740	     -9.46585153	      0.22328691	     32.19407393	     30.83438759	     -7.63766555	    -48.39154587	     -1.51043277	     -9.79035093	     -0.69610525	    -11.83963980	     -0.22975706	     40.25955437	     90.00000001	      0.00000000	      0.00000000	     22.82138998	    -17.26546221	     -5.23222696	     53.99170355	     90.00000001	      0.00000000	      0.00000000
      1.05000000	     20.90017302	      7.71646830	      3.12261073	     -1.51265686	      0.90283289	      0.08672439	     12.80415464	    -15.46633439	    -39.59236084	     39.25580407	    -13.04800106	      0.68514303	     24.91410252	     35.27684737	     -7.63018268	    -28.98473457	     13.39365398	     -7.29984078	     12.92135064	     -9.48479466	      0.22552011	     32.62584545	     32.05381589	     -7.63018268	    -48.03878402	     -1.60161689	    -10.09546077	     -0.58406810	    -11.64323548	     -0.59674265	     40.07959676	     90.00000001	      0.00000000	      0.00000000	     23.40372701	    -17.54805774	     -4.89275373	     55.14945929	     90.00000001	      0.00000000	      0.00000000
      1.06000000	     20.46463044	      7.94859380	      3.21759409	     -1.50026811	      0.90056132	      0.08704463	     13.93959912	    -15.66046619	    -39.61567379	     37.22809547	    -11.99403413	      0.64975284	     24.01682693	     35.68148326	     -7.62599536	    -29.24980856	     13.41460016	     -8.25802140	     13.15691437	     -9.50941503	      0.22963148	     33.10241021	     32.95859719	     -7.62599536	    -47.69088532	     -1.69679476	    -10.34711530	     -0.54733468	    -11.51872043	     -0.83200087	     39.96287328	     90.00000001	      0.00000000	      0.00000000	     24.07976410	    -17.75045486	     -4.72288517	     55.94569606	     90.00000001	      0.00000000	      0.00000000
      1.07000000	     19.96138545	      8.18696957	      3.31451111	     -1.48772095	      0.89820361	      0.08741816	     15.03042192	    -15.83355156	    -39.63915437	     35.44084414	    -11.03083677	      0.61855942	     23.40316309	     35.84233621	     -7.62303522	    -29.43090324	     13.47165878	     -8.89348375	     13.48316193	     -9.55520555	      0.23532557	     33.41615428	     33.50209411	     -7.62303522	    -47.24550749	     -1.80747392	    -10.57270213	     -0.53145583	    -11.42562295	     -0.95549477	     39.87842023	     90.00000001	      0.00000000	      0.00000000	     24.69927296	    -17.85739600	     -4.61799355	     56.61519752	     90.00000001	      0.00000000	      0.00000000
      1.08000000	     19.53251309	      8.43373262	      3.34519321	     -1.47501094	      0.89583686	      0.08792109	     15.97487059	    -16.00971292	    -39.66443541	     34.01721385	    -10.21175953	      0.59371238	     22.55312204	     36.08955130	     -7.61920573	    -29.53204931	     13.47863056	    -10.17841888	     14.05747326	     -9.64572397	      0.24534919	     33.81809966	     34.45714587	     -7.61920573	    -46.86913797	     -1.96502603	    -10.77218553	     -0.43575978	    -11.33290793	     -1.17680290	     39.70804071	     90.00000001	      0.00000000	      0.00000000	     25.15766405	    -18.04799065	     -4.45852483	     57.48990033	     90.00000001	      0.00000000	      0.00000000
      1.09000000	     18.99607278	      8.76866599	      3.37996047	     -1.46204333	      0.89332351	      0.08841738	     16.98462618	    -16.29658410	    -39.68191479	     33.08009102	     -9.56833966	      0.57735651	     22.44654681	     36.02454071	     -7.61845286	    -29.61658436	     13.68026270	    -10.61976635	     14.59291434	     -9.77916444	      0.25469440	     33.87248024	     34.55676241	     -7.61845286	    -46.34126530	     -2.21437287	    -10.98498809	     -0.47593444	    -11.28664460	     -1.20276805	     39.68383335	     90.00000001	      0.00000000	      0.00000000	     25.67798544	    -18.06959257	     -4.42388687	     57.84980731	     90.00000001	      0.00000000	      0.00000000
      1.10000000	     18.65921523	      8.79617138	      3.45618723	     -1.44881894	      0.89120349	      0.08918253	     17.49417611	    -16.01320637	    -39.70089611	     31.99067029	     -9.15922272	      0.55834253	     21.50341051	     35.91451717	     -7.61563921	    -29.67224024	     13.33269451	    -11.90305868	     15.50971941	     -9.86755656	      0.27069567	     34.32042692	     35.47797862	     -7.61563921	    -45.99026732	     -2.15513955	    -11.02489576	     -0.37479737	    -11.22162460	     -1.42033075	     39.44057241	     90.00000001	      0.00000000	      0.00000000	     25.85233711	    -18.19187794	     -4.22781087	     58.87869739	     90.00000001	      0.00000000	      0.00000000
      1.11000000	     18.25325432	      8.94882783	      3.51296479	     -1.43533254	      0.88897231	      0.08987577	     18.10196038	    -15.93056269	    -39.71540737	     31.53496493	     -8.98609225	      0.55038897	     21.12614260	     35.66112592	     -7.61239791	    -29.71289659	     13.20214206	    -12.73571458	     16.37946828	    -10.05223712	      0.28587565	     34.47598297	     36.18540443	     -7.61239791	    -45.54663422	     -2.22554252	    -11.11314435	     -0.31217114	    -11.19504935	     -1.65972251	     39.24328762	     90.00000001	      0.00000000	      0.00000000	     25.97727947	    -18.29143442	     -4.06704581	     59.61631604	     90.00000001	      0.00000000	      0.00000000
      1.12000000	     17.69875825	      9.04512776	      3.59477516	     -1.42146669	      0.88674319	      0.09053321	     18.75146592	    -15.82392676	    -39.71539105	     31.42604543	     -8.87555983	      0.54848796	     21.07251788	     35.50936282	     -7.61207267	    -29.76338274	     13.13356944	    -12.81190386	     16.96163761	    -10.25825240	      0.29603642	     34.40020339	     36.10903432	     -7.61207267	    -44.87026944	     -2.23796538	    -11.18468090	     -0.29968056	    -11.22321633	     -1.67481921	     39.26417584	     90.00000001	      0.00000000	      0.00000000	     26.11796096	    -18.28113418	     -4.05675337	     59.71817610	     90.00000001	      0.00000000	      0.00000000
      1.13000000	     17.49114806	      8.99105942	      3.66880085	     -1.40747561	      0.88501510	      0.09150409	     18.96348144	    -15.32286563	    -39.73094918	     31.40976001	     -9.33897655	      0.54820373	     20.19299422	     35.19032946	     -7.60934455	    -29.77844185	     12.62185245	    -13.71351411	     18.42192193	    -10.40047797	      0.32152319	     34.23997385	     36.64262931	     -7.60934455	    -44.57066795	     -2.08325621	    -11.06058228	     -0.31763102	    -11.23373835	     -1.92118286	     38.94834339	     90.00000001	      0.00000000	      0.00000000	     25.97953936	    -18.23663759	     -3.94366273	     60.47268387	     90.00000001	      0.00000000	      0.00000000
      1.14000000	     17.09096416	      8.94624950	      3.76286814	     -1.39310979	      0.88327979	      0.09235990	     19.35161453	    -14.94918987	    -39.73255958	     31.85122686	     -9.86385428	      0.55590878	     19.90348638	     35.05582536	     -7.60870581	    -29.80178962	     12.31059843	    -13.69260892	     19.48475878	    -10.59664769	      0.34007319	     34.02449128	     36.68080566	     -7.60870581	    -44.00239796	     -1.95135056	    -10.98081953	     -0.35668844	    -11.34098239	     -1.99441755	     38.87693406	     90.00000001	      0.00000000	      0.00000000	     25.80285284	    -18.12777571	     -3.91315565	     60.56084024	     90.00000001	      0.00000000	      0.00000000
